<svg version="1.1" xmlns="http://www.w3.org/2000/svg" xmlns:xlink="http://www.w3.org/1999/xlink" width="1560" height="804"><defs/><g><path fill="none" stroke="#02063B" paint-order="fill stroke markers" d=" M 20 589.8793318217137 L 21 598.3234093733616 L 22 606.6315367312434 L 23 614.7979606765873 L 24 622.8170261175158 L 25 630.6831800050877 L 26 638.3909751786784 L 27 645.9350741380345 L 28 653.3102527393889 L 29 660.5114038130821 L 30 667.5335407001769 L 31 674.3718007056264 L 32 681.021448465595 L 33 687.4778792266084 L 34 693.736622034256 L 35 699.7933428292417 L 36 705.643847448637 L 37 711.2840845302572 L 38 716.7101483181533 L 39 721.9182813672721 L 40 726.9048771454152 L 41 731.6664825306935 L 42 736.1998002027476 L 43 740.5016909260787 L 44 744.5691757239096 L 45 748.3994379410678 L 46 751.9898251944668 L 47 755.3378512098288 L 48 758.4411975433832 L 49 761.2977151873436 L 50 763.9054260580549 L 51 766.2625243657783 L 52 768.3673778651657 L 53 770.2185289855585 L 54 771.8146958403272 L 55 773.1547731145539 L 56 774.2378328304404 L 57 775.0631249899163 L 58 775.6300780939976 L 59 775.938299538539 L 60 775.9875758861043 L 61 775.7778730137686 L 62 775.3093361367469 L 63 774.582289707836 L 64 773.5972371927365 L 65 772.3548607214134 L 66 770.8560206157329 L 67 769.1017547937073 L 68 767.093278050756 L 69 764.8319812184831 L 70 762.3194302015531 L 71 759.5573648933323 L 72 756.5476979710459 L 73 753.292513571285 L 74 749.7940658467835 L 75 746.0547774054592 L 76 742.077237632805 L 77 737.864200898789 L 78 733.4185846505059 L 79 728.7434673919016 L 80 723.8420865519672 L 81 718.7178362428825 L 82 713.374264909658 L 83 707.8150728729047 L 84 702.0441097664333 L 85 696.065371871457 L 86 689.8829993492429 L 87 683.5012733741298 L 88 676.9246131688969 L 89 670.1575729445383 L 90 663.2048387465572 L 91 656.0712252099704 L 92 648.7616722252664 L 93 641.2812415176246 L 94 633.635113141769 L 95 625.8285818948798 L 96 617.8670536500465 L 97 609.7560416128058 L 98 601.5011625033527 L 99 593.1081326670685 L 100 584.5827641160619 L 101 575.9309605044624 L 102 567.1587130402528 L 103 558.2720963364721 L 104 549.2772642046641 L 105 540.180445393479 L 106 530.9879392753859 L 107 521.7061114844776 L 108 512.3413895083918 L 109 502.90025823739836 L 110 493.38925547373765 L 111 483.8149674043183 L 112 474.1840240399085 L 113 464.5030946239809 L 114 454.7788830143903 L 115 445.0181230410796 L 116 435.227573843032 L 117 425.414015187698 L 118 415.58424277613506 L 119 405.7450635371158 L 120 395.9032909134608 L 121 386.0657401438593 L 122 376.23922354344745 L 123 366.43054578641164 L 124 356.6464991938811 L 125 346.8938590303761 L 126 337.1793788120678 L 127 327.5097856300976 L 128 317.8917754921953 L 129 308.3320086858225 L 130 298.8371051660517 L 131 289.4136399713737 L 132 280.06813867061004 L 133 270.8070728440822 L 134 261.6368556021654 L 135 252.56383714433338 L 136 243.59430036176755 L 137 234.73445648657435 L 138 225.9904407906268 L 139 217.3683083370068 L 140 208.87402978698935 L 141 200.51348726547462 L 142 192.29247028772963 L 143 184.2166717502592 L 144 176.2916839885851 L 145 168.52299490466058 L 146 160.91598416660415 L 147 153.47591948338186 L 148 146.20795295702015 L 149 139.11711751487474 L 150 132.20832342442412 L 151 125.48635489300375 L 152 118.95586675483486 L 153 112.62138124764033 L 154 106.4872848810823 L 155 100.55782539918823 L 156 94.83710883886943 L 157 89.32909668657021 L 158 84.03760313501334 L 159 78.96629244194543 L 160 74.11867639270866 L 161 69.49811186839696 L 162 65.10779852127979 L 163 60.95077655910512 L 164 57.02992463981309 L 165 53.34795787812101 L 166 49.90742596535864 L 167 46.71071140385561 L 168 43.76002785710426 L 169 41.05741861684072 L 170 38.604755188103695 L 171 36.40373599325369 L 172 34.45588519584817 L 173 32.76255164518716 L 174 31.32490794226146 L 175 30.14394962774844 L 176 29.220494492619764 L 177 28.555182011836337 L 178 28.1484729015246 L 179 28.000648799939142 L 180 28.11181207243368 L 181 28.481885740575194 L 182 29.110613535449716 L 183 29.99756007512383 L 184 31.14211116613842 L 185 32.54347422882557 L 186 34.20067884615497 L 187 36.11257743572901 L 188 38.277846044461455 L 189 40.69498526539002 L 190 43.36232127598623 L 191 46.278006997245996 L 192 49.44002337275606 L 193 52.84618076685183 L 194 56.494120480898516 L 195 60.38131638664362 L 196 64.50507667551346 L 197 68.86254572263834 L 198 73.45070606431801 L 199 78.26638048755751 L 200 83.30623423022621 L 201 88.56677729031622 L 202 94.04436684270235 L 203 99.73520976172841 L 204 105.63536524787384 L 205 111.74074755668181 L 206 118.0471288280591 L 207 124.55014201398717 L 208 131.24528390262049 L 209 138.1279182366734 L 210 145.1932789239396 L 211 152.43647333771943 L 212 159.8524857048701 L 213 167.43618057913255 L 214 175.18230639732832 L 215 183.08549911596808 L 216 191.14028592574746 L 217 199.34108904136306 L 218 207.68222956402138 L 219 216.15793141396793 L 220 224.7623253303102 L 221 233.48945293536997 L 222 242.33327086074456 L 223 251.28765493222352 L 224 260.3464044106619 L 225 269.5032462858733 L 226 278.7518396205681 L 227 288.0857799413323 L 228 297.49860367360174 L 229 306.98379261756315 L 230 316.534778461883 L 231 326.14494733213667 L 232 335.8076443707902 L 233 345.5161783455599 L 234 355.26382628296454 L 235 365.0438381238537 L 236 374.84944139769493 L 237 384.67384591237965 L 238 394.51024845630104 L 239 404.3518375094462 L 240 414.1917979602452 L 241 424.0233158249036 L 242 433.8395829659558 L 243 443.63380180676984 L 244 453.39919003873877 L 245 463.128985317898 L 246 472.81644994772097 L 247 482.454875544843 L 248 492.0375876844886 L 249 501.5579505223825 L 250 511.00937138994453 L 251 520.3853053595863 L 252 529.6792597769469 L 253 538.8847987569329 L 254 547.9955476404448 L 255 557.0051974087057 L 256 565.9075090521362 L 257 574.6963178907487 L 258 583.3655378430692 L 259 591.9091656406335 L 260 600.3212849851348 L 261 608.5960706453457 L 262 616.7277924909804 L 263 624.7108194606997 L 264 632.5396234615118 L 265 640.2087831968723 L 266 647.7129879208271 L 267 655.047041115602 L 268 662.2058640900918 L 269 669.1844994967566 L 270 675.9781147644894 L 271 682.582005445079 L 272 688.9915984709501 L 273 695.2024553219255 L 274 701.210275098815 L 275 707.0108975017065 L 276 712.6003057108937 L 277 717.9746291684457 L 278 723.1301462584956 L 279 728.063286884387 L 280 732.7706349408979 L 281 737.2489306798279 L 282 741.4950729673114 L 283 745.5061214312927 L 284 749.2792984976782 L 285 752.8119913137523 L 286 756.1017535575284 L 287 759.1463071317794 L 288 761.9435437415768 L 289 764.4915263542441 L 290 766.788490540715 L 291 768.8328456973661 L 292 770.623176147481 L 293 772.1582421215768 L 294 773.436980615923 L 295 774.4585061286496 L 296 775.222111272941 L 297 775.7272672668877 L 298 775.973624299657 L 299 775.9610117737311 L 300 775.6894384230424 L 301 775.1590923069248 L 302 774.3703406798869 L 303 773.3237297372955 L 304 772.0199842371449 L 305 770.4600069981763 L 306 768.6448782746938 L 307 766.5758550085081 L 308 764.2543699585289 L 309 761.6820307086061 L 310 758.8606185543108 L 311 755.7920872694194 L 312 752.4785617529653 L 313 748.9223365577861 L 314 745.125874301589 L 315 741.0918039616372 L 316 736.8229190542311 L 317 732.3221757002543 L 318 727.5926905781157 L 319 722.6377387655083 L 320 717.4607514714828 L 321 712.0653136603994 L 322 706.4551615694102 L 323 700.6341801211854 L 324 694.6064002336799 L 325 688.3759960288 L 326 681.9472819419024 L 327 675.3247097341332 L 328 668.5128654096658 L 329 661.5164660399842 L 330 654.3403564973979 L 331 646.9895061000642 L 332 639.4690051708292 L 333 631.7840615122755 L 334 623.939996800422 L 335 615.9422428995623 L 336 607.7963381008051 L 337 599.5079232869134 L 338 591.0827380260994 L 339 582.5266165974874 L 340 573.8454839509835 L 341 565.0453516043654 L 342 556.132313480417 L 343 547.1125416870088 L 344 537.9922822430292 L 345 528.7778507531342 L 346 519.4756280343173 L 347 510.092055697311 L 348 500.6336316858997 L 349 491.1069057772134 L 350 481.5184750461375 L 351 471.87497929696275 L 352 462.1830964654463 L 353 452.44953799447387 L 354 442.6810441865095 L 355 432.8843795360693 L 356 423.06632804543744 L 357 413.2336885268726 L 358 403.3932698945654 L 359 393.55188644959077 L 360 383.7163531611407 L 361 373.8934809472833 L 362 364.0900719585375 L 363 354.3129148675123 L 364 344.56878016787925 L 365 334.8644154859402 L 366 325.2065409080203 L 367 315.60184432694234 L 368 306.0569768107841 L 369 296.5785479971459 L 370 287.17312151610145 L 371 277.84721044500816 L 372 268.60727279833014 L 373 259.4597070555826 L 374 250.41084773051153 L 375 241.4669609845627 L 376 232.63424028768335 L 377 223.91880212946737 L 378 215.32668178359867 L 379 206.86382912854478 L 380 198.5361045273757 L 381 190.34927476957853 L 382 182.30900907766514 L 383 174.42087518134238 L 384 166.6903354619702 L 385 159.1227431699629 L 386 151.72333871777 L 387 144.49724605098754 L 388 137.44946910012715 L 389 130.58488831548885 L 390 123.90825728754163 L 391 117.42419945515599 L 392 111.13720490395843 L 393 105.0516272570357 L 394 99.17168066013329 L 395 93.50143686343915 L 396 88.0448224019778 L 397 82.80561587655666 L 398 77.78744533716093 L 399 72.99378577059542 L 400 68.42795669412527 L 401 64.09311985677323 L 402 59.99227704986788 L 403 56.128268028363095 L 404 52.503768544359616 L 405 49.12128849420071 L 406 45.98317018041456 L 407 43.09158668971685 L 408 40.448540388188746 L 409 38.05586153467658 L 410 35.91520701337407 L 411 34.02805918646004 L 412 32.395724867592605 L 413 31.019334416965023 L 414 29.899840958552772 L 415 29.0380197200941 L 416 28.434467496259174 L 417 28.08960223538162 L 418 28.00366275003688 L 419 28.176708551669662 L 420 28.608619809382674 L 421 29.299097432918074 L 422 30.247663279770848 L 423 31.45366048629404 L 424 32.91625392256384 L 425 34.63443077069127 L 426 36.607001226178795 L 427 38.83259932183722 L 428 41.309683873692336 L 429 44.036539548224084 L 430 47.01127805020354 L 431 50.23183943029977 L 432 53.6959935115558 L 433 57.401341433743994 L 434 61.345317314529154 L 435 65.52519002629492 L 436 69.93806508739482 L 437 74.58088666652776 L 438 79.45043969884028 L 439 84.54335211229858 L 440 89.85609716278424 L 441 95.38499587629457 L 442 101.12621959656457 L 443 107.07579263633488 L 444 113.22959503044177 L 445 119.58336538881144 L 446 126.13270384739207 L 447 132.87307511497636 L 448 139.79981161380073 L 449 146.90811671175686 L 450 154.1930680439644 L 451 161.64962092141525 L 452 169.2726118243257 L 453 177.056761977771 L 454 184.99668100714 L 455 193.0868706708619 L 456 201.32172866783733 L 457 209.6955525169204 L 458 218.20254350577937 L 459 226.8368107063951 L 460 235.59237505441192 L 461 244.46317348952937 L 462 253.44306315405058 L 463 262.525825646698 L 464 271.70517132873294 L 465 280.9747436794112 L 466 290.32812369775377 L 467 299.75883434757765 L 468 309.2603450427237 L 469 318.8260761693582 L 470 328.44940364223095 L 471 338.123663491729 L 472 347.84215647854353 L 473 357.59815273276934 L 474 367.3848964142056 L 475 377.1956103906509 L 476 387.0235009309324 L 477 396.86176240943644 L 478 406.70358201887564 L 479 416.5421444880225 L 480 426.37063680115943 L 481 436.1822529159559 L 482 445.97019847652774 L 483 455.7276955183931 L 484 465.4479871620852 L 485 475.1243422921636 L 486 484.7500602183777 L 487 494.31847531577165 L 488 503.82296164049694 L 489 513.2569375181533 L 490 522.6138701014743 L 491 531.8872798941936 L 492 541.0707452379773 L 493 550.1579067592941 L 494 559.1424717731637 L 495 568.0182186407174 L 496 576.7790010775643 L 497 585.4187524099776 L 498 593.9314897759456 L 499 602.3113182681932 L 500 610.552435016288 L 501 618.6491332050207 L 502 626.5958060262617 L 503 634.3869505615692 L 504 642.0171715928572 L 505 649.4811853384754 L 506 656.7738231121323 L 507 663.8900349021067 L 508 670.8248928682854 L 509 677.5735947546 L 510 684.1314672144931 L 511 690.4939690471257 L 512 696.6566943420668 L 513 702.6153755303062 L 514 708.3658863394612 L 515 713.9042446511417 L 516 719.2266152584925 L 517 724.3293125219978 L 518 729.2088029217182 L 519 733.861707504183 L 520 738.2848042222537 L 521 742.4750301663267 L 522 746.4294836853414 L 523 750.145426396118 L 524 753.620285079633 L 525 756.851653462928 L 526 759.8372938854029 L 527 762.5751388483563 L 528 765.063292446688 L 529 767.3000316817756 L 530 769.2838076546195 L 531 771.0132466384249 L 532 772.4871510298815 L 533 773.7045001784808 L 534 774.6644510932967 L 535 775.3663390267416 L 536 775.8096779348894 L 537 775.9941608140539 L 538 775.9196599133809 L 539 775.5862268233149 L 540 774.9940924398722 L 541 774.1436668047513 L 542 773.0355388213854 L 543 771.6704758471399 L 544 770.0494231619297 L 545 768.1735033136334 L 546 766.0440153407494 L 547 763.6624338728362 L 548 761.0304081093607 L 549 758.1497606776582 L 550 755.022486370799 L 551 751.6507507662315 L 552 748.036888726162 L 553 744.1834027807081 L 554 740.092961394942 L 555 735.7683971210329 L 556 731.2127046367566 L 557 726.4290386717405 L 558 721.4207118228715 L 559 716.1911922603884 L 560 710.7441013262404 L 561 705.0832110263748 L 562 699.2124414186991 L 563 693.1358578985123 L 564 686.8576683832998 L 565 680.3822203988298 L 566 673.7139980685743 L 567 666.8576190085421 L 568 659.8178311296651 L 569 652.599509349965 L 570 645.2076522187617 L 571 637.6473784552776 L 572 629.9239234040214 L 573 622.0426354094104 L 574 614.0089721121493 L 575 605.8284966699131 L 576 597.5068739049727 L 577 589.0498663814091 L 578 580.4633304146524 L 579 571.7532120160944 L 580 562.9255427755875 L 581 553.9864356846888 L 582 544.9420809035262 L 583 535.7987414742354 L 584 526.5627489839214 L 585 517.2404991801541 L 586 507.8384475420405 L 587 498.3631048099239 L 588 488.8210324768265 L 589 479.21883824473593 L 590 469.5631714489034 L 591 459.86071845330423 L 592 450.1181980204575 L 593 440.3423566588162 L 594 430.53996395093463 L 595 420.7178078656675 L 596 410.88269005762635 L 597 401.04142115716905 L 598 391.20081605416703 L 599 381.36768917882273 L 600 371.54884978281194 L 601 361.75109722400265 L 602 351.98121625803464 L 603 342.2459723400045 L 604 332.55210693951585 L 605 322.9063328723454 L 606 313.3153296519419 L 607 303.78573886399624 L 608 294.3241595672656 L 609 284.9371437238566 L 610 275.6311916621146 L 611 266.4127475752728 L 612 257.28819505896735 L 613 248.26385269072713 L 614 239.3459696544752 L 615 230.54072141309004 L 616 221.85420543201718 L 617 213.29243695688672 L 618 204.86134484807818 L 619 196.56676747509374 L 620 188.4144486736017 L 621 180.4100337679361 L 622 172.55906566182452 L 623 164.86698100002923 L 624 157.33910640357604 L 625 149.98065478117257 L 626 142.796721719365 L 627 135.79228195394796 L 628 128.9721859250518 L 629 122.34115641830653 L 630 115.90378529440443 L 631 109.66453030932115 L 632 103.62771202741055 L 633 97.79751082949304 L 634 92.1779640180232 L 635 86.77296302133595 L 636 81.58625069890417 L 637 76.62141874948469 L 638 71.88190522393296 L 639 67.37099214442009 L 640 63.09180323169312 L 641 59.04730174196186 L 642 55.2402884148986 L 643 51.67339953418002 L 644 48.349105101911846 L 645 45.269707128198036 L 646 42.43733803704578 L 647 39.85395918970056 L 648 37.52135952644221 L 649 35.44115432777778 L 650 33.614784095889945 L 651 32.043513557118615 L 652 30.728430786161027 L 653 29.670446452601084 L 654 28.87029319028835 L 655 28.3285250900027 L 656 28.045517315757763 L 657 28.02146584500673 L 658 28.256387332931354 L 659 28.750119100909274 L 660 29.50231924916534 L 661 30.5124668935307 L 662 31.77986252614528 L 663 33.30362849985306 L 664 35.082709635957144 L 665 37.115873954909034 L 666 39.40171352943213 L 667 41.938645459483666 L 668 44.72491296838251 L 669 47.75858661934484 L 670 51.03756565157994 L 671 54.55957943502773 L 672 58.32218904272668 L 673 62.32278893972324 L 674 66.55860878735672 L 675 71.0267153616627 L 676 75.72401458457648 L 677 80.64725366652141 L 678 85.79302335890588 L 679 91.15776031495881 L 680 96.7377495572814 L 681 102.52912705039711 L 682 108.52788237652112 L 683 114.72986151270095 L 684 121.13076970739314 L 685 127.72617445449896 L 686 134.51150856278952 L 687 141.4820733185967 L 688 148.6330417395863 L 689 155.9594619173449 L 690 163.45626044648515 L 691 171.1182459378807 L 692 178.9401126136026 L 693 186.91644398107277 L 694 195.04171658387506 L 695 203.3103038266468 L 696 211.71647987138616 L 697 220.25442360248942 L 698 228.91822265775522 L 699 237.70187752258627 L 700 246.59930568453714 L 701 255.60434584533613 L 702 264.7107621874708 L 703 273.9122486923649 L 704 283.20243350718 L 705 292.57488335719995 L 706 302.0231080007491 L 707 311.5405647235652 L 708 321.12066286949556 L 709 330.7567684044055 L 710 340.44220851011806 L 711 350.1702762052114 L 712 359.93423498948 L 713 369.72732350882376 L 714 379.54276023736134 L 715 389.37374817350417 L 716 399.21347954675457 L 717 409.05514053194867 L 718 418.8919159677046 L 719 428.7169940757897 L 720 438.52357117814506 L 721 448.304856408307 L 722 458.0540764139442 L 723 467.7644800472792 L 724 477.42934304012783 L 725 487.0419726603239 L 726 496.59571234631363 L 727 506.0839463166886 L 728 515.5001041514929 L 729 524.8376653421113 L 730 534.0901638065955 L 731 543.2511923673062 L 732 552.3144071877537 L 733 561.2735321655877 L 734 570.1223632786754 L 735 578.8547728812725 L 736 587.464713947293 L 737 595.9462242577639 L 738 604.2934305295457 L 739 612.5005524824677 L 740 620.561906842065 L 741 628.4719112751308 L 742 636.2250882553792 L 743 643.8160688565263 L 744 651.239596470167 L 745 658.4905304458802 L 746 665.5638496510237 L 747 672.4546559477769 L 748 679.1581775850066 L 749 685.6697725026106 L 750 691.9849315460608 L 751 698.0992815888992 L 752 704.0085885610488 L 753 709.7087603808236 L 754 715.1958497886196 L 755 720.4660570803126 L 756 725.5157327384818 L 757 730.3413799596321 L 758 734.9396570756606 L 759 739.3073798679018 L 760 743.4415237721328 L 761 747.3392259730294 L 762 750.9977873866105 L 763 754.4146745292999 L 764 757.5875212723187 L 765 760.5141304801801 L 766 763.1924755321661 L 767 765.6207017257225 L 768 767.797127560805 L 769 769.7202459042866 L 770 771.3887250336165 L 771 772.8014095590138 L 772 773.9573212235525 L 773 774.8556595805859 L 774 775.4958025480396 L 775 775.8773068391921 L 776 775.9999082696427 L 777 775.8635219402532 L 778 775.4682422959397 L 779 774.8143430602709 L 780 773.9022770459198 L 781 772.7326758411001 L 782 771.3063493722027 L 783 769.6242853429376 L 784 767.6876485503681 L 785 765.4977800783112 L 786 763.0561963686628 L 787 760.3645881712908 L 788 757.4248193732226 L 789 754.23892570794 L 790 750.8091133456726 L 791 747.1377573656675 L 792 743.2274001114909 L 793 739.0807494305062 L 794 734.7006767987405 L 795 730.0902153324428 L 796 725.2525576877092 L 797 720.1910538496287 L 798 714.909208812485 L 799 709.4106801526136 L 800 703.6992754956009 L 801 697.7789498795776 L 802 691.6538030164263 L 803 685.3280764528163 L 804 678.8061506330091 L 805 672.0925418654865 L 806 665.1918991954946 L 807 658.1090011856647 L 808 650.8487526069569 L 809 643.4161810421956 L 810 635.8164334045682 L 811 628.0547723734809 L 812 620.1365727502613 L 813 612.0673177362071 L 814 603.8525951355756 L 815 595.4980934861376 L 816 587.0095981199697 L 817 578.3929871572293 L 818 569.6542274356652 L 819 560.7993703786976 L 820 551.8345478049248 L 821 542.765967681952 L 822 533.5999098274998 L 823 524.3427215607459 L 824 515.0008133069301 L 825 505.5806541582588 L 826 496.08876739417764 L 827 486.53172596413344 L 828 476.9161479359276 L 829 467.2486919128338 L 830 457.536052422638 L 831 447.7849552818138 L 832 438.0021529380185 L 833 428.1944197941545 L 834 418.3685475172257 L 835 408.53134033523384 L 836 398.68961032538897 L 837 388.8501726968711 L 838 379.0198410714302 L 839 369.2054227650854 L 840 359.4137140741834 L 841 349.6514955691023 L 842 339.92552739883075 L 843 330.2425446096963 L 844 320.60925248147635 L 845 311.03232188411494 L 846 301.5183846582815 L 847 292.0740290229433 L 848 282.7057950131525 L 849 273.4201699511925 L 850 264.22358395423925 L 851 255.1224054816236 L 852 246.1229369247964 L 853 237.23141024304482 L 854 228.45398264797524 L 855 219.79673233976945 L 856 211.26565429814303 L 857 202.86665613093805 L 858 194.60555398321907 L 859 186.4880685096999 L 860 178.51982091330677 L 861 170.7063290525984 L 862 163.05300362075624 L 863 155.56514439878424 L 864 148.2479365855079 L 865 141.10644720693 L 866 134.1456216074081 L 867 127.37028002510039 L 868 120.78511425403951 L 869 114.39468439516105 L 870 108.20341569851718 L 871 102.21559549887672 L 872 96.43537024682922 L 873 90.86674263744419 L 874 85.51356883848621 L 875 80.37955582008965 L 876 75.46825878775388 L 877 70.78307872043217 L 878 66.32726001541647 L 879 62.10388824165864 L 880 58.115888003070154 L 881 54.36602091329098 L 882 50.856883683325634 L 883 47.59090632336847 L 884 44.570350460071325 L 885 41.79730777040851 L 886 39.27369853323131 L 887 37.00127029951062 L 888 34.9815966821933 L 889 33.2160762665041 L 890 31.70593164145248 L 891 30.452208553213495 L 892 29.45577518096792 L 893 28.71732153570582 L 894 28.237358982406306 L 895 28.016219885927683 L 896 28.05405738085085 L 897 28.35084526543659 L 898 28.906378019769875 L 899 29.72027094807845 L 900 30.791960445127074 L 901 32.12070438650329 L 902 33.70558264252537 L 903 35.54549771541264 L 904 37.639175499283226 L 905 39.9851661624466 L 906 42.58184515138623 L 907 45.42741431572915 L 908 48.519903153432494 L 909 51.857170175317435 L 910 55.436904388009225 L 911 59.25662689425758 L 912 63.31369260952266 L 913 67.60529209364717 L 914 72.12845349633932 L 915 76.88004461512139 L 916 81.85677506432262 L 917 87.05519855360416 L 918 92.47171527445164 L 919 98.1025743929726 L 920 103.94387664727657 L 921 109.99157704764201 L 922 116.24148767758942 L 923 122.68928059393642 L 924 129.33049082381325 L 925 136.160519456575 L 926 143.17463682845306 L 927 150.3679857977604 L 928 157.73558510836807 L 929 165.27233283912835 L 930 172.97300993686147 L 931 180.8322838304435 L 932 188.84471212351374 L 933 197.00474636322875 L 934 205.30673588245824 L 935 213.74493171276816 L 936 222.3134905654645 L 937 231.0064788779626 L 938 239.81787692266477 L 939 248.74158297550468 L 940 257.771417541279 L 941 266.90112763282195 L 942 276.12439110108414 L 943 285.43482101309655 L 944 294.8259700748042 L 945 304.29133509568624 L 946 313.8243614920953 L 947 323.41844782618006 L 948 333.0669503772524 L 949 342.7631877424423 L 950 352.50044546343287 L 951 362.2719806760994 L 952 372.0710267798118 L 953 381.8907981231746 L 954 391.72449470296544 L 955 401.5653068729992 L 956 411.4064200596821 L 957 421.2410194809723 L 958 431.06229486548403 L 959 440.86344516847544 L 960 450.6376832814334 L 961 460.37824073202125 L 962 470.0783723711136 L 963 479.7313610436874 L 964 489.33052224031564 L 965 498.86920872606686 L 966 508.34081514358616 L 967 517.7387825871776 L 968 527.0566031447255 L 969 536.287824404291 L 970 545.4260539222885 L 971 554.464963650129 L 972 563.3982943162714 L 973 572.2198597606525 L 974 580.9235512184765 L 975 589.503341550423 L 976 597.9532894163236 L 977 606.2675433894251 L 978 614.4403460083945 L 979 622.4660377642438 L 980 630.3390610194361 L 981 638.0539638564406 L 982 645.6054038530852 L 983 652.9881517820746 L 984 660.1970952321346 L 985 667.2272421482576 L 986 674.0737242886039 L 987 680.7318005956694 L 988 687.1968604793715 L 989 693.4644270097979 L 990 699.5301600173937 L 991 705.3898590984452 L 992 711.0394665237814 L 993 716.4750700486687 L 994 721.6929056219694 L 995 726.6893599926736 L 996 731.4609732120051 L 997 736.0044410293726 L 998 740.316617180496 L 999 744.3945155661365 L 1000 748.2353123199117 L 1001 751.8363477637713 L 1002 755.1951282497698 L 1003 758.3093278868716 L 1004 761.1767901515864 L 1005 763.7955293813184 L 1006 766.1637321494027 L 1007 768.279758520865 L 1008 770.1421431880474 L 1009 771.7495964853049 L 1010 773.1010052820741 L 1011 774.1954337536956 L 1012 775.0321240294536 L 1013 775.6104967173874 L 1014 775.9301513055084 L 1015 775.9908664391487 L 1016 775.792600074243 L 1017 775.3354895064447 L 1018 774.6198512760502 L 1019 773.6461809488023 L 1020 772.4151527727186 L 1021 770.9276192111888 L 1022 769.1846103526607 L 1023 767.1873331973221 L 1024 764.937170821278 L 1025 762.4356814187951 L 1026 759.6845972232841 L 1027 756.6858233077603 L 1028 753.4414362656171 L 1029 749.9536827726254 L 1030 746.2249780311522 L 1031 742.2579040976817 L 1032 738.0552080947894 L 1033 733.6198003088118 L 1034 728.9547521745314 L 1035 724.0632941482628 L 1036 718.948813470828 L 1037 713.6148518219552 L 1038 708.0651028677341 L 1039 702.3034097028208 L 1040 696.3337621891721 L 1041 690.1602941931408 L 1042 683.7872807228518 L 1043 677.2191349678436 L 1044 670.4604052430142 L 1045 663.5157718390066 L 1046 656.3900437811933 L 1047 649.0881554995199 L 1048 641.6151634115072 L 1049 633.9762424207759 L 1050 626.1766823335308 L 1051 618.2218841954677 L 1052 610.1173565516535 L 1053 601.8687116319659 L 1054 593.4816614647273 L 1055 584.9620139212416 L 1056 576.3156686939503 L 1057 567.5486132110109 L 1058 558.666918490113 L 1059 549.6767349344221 L 1060 540.5842880735394 L 1061 531.3958742524419 L 1062 522.1178562713869 L 1063 512.756658979789 L 1064 503.318764827143 L 1065 493.8107093740472 L 1066 484.23907676645376 L 1067 474.6104951762761 L 1068 464.9316322115012 L 1069 455.2091902990069 L 1070 445.44990204325484 L 1071 435.66052556409255 L 1072 425.847839816886 L 1073 416.01863989821805 L 1074 406.1797323404225 L 1075 396.3379303981856 L 1076 386.50004933050053 L 1077 376.67290168122616 L 1078 366.8632925615391 L 1079 357.0780149375193 L 1080 347.3238449261531 L 1081 337.607537103003 L 1082 327.93581982478895 L 1083 318.3153905701381 L 1084 308.75291130170416 L 1085 299.2550038528872 L 1086 289.82824534234277 L 1087 280.47916361944795 L 1088 271.2142327438987 L 1089 262.03986850254296 L 1090 252.96242396657195 L 1091 243.9881850921422 L 1092 235.12336636746633 L 1093 226.37410650940646 L 1094 217.74646421252592 L 1095 209.24641395356164 L 1096 200.8798418542093 L 1097 192.65254160510375 L 1098 184.57021045379497 L 1099 176.63844525951433 L 1100 168.8627386174583 L 1101 161.2484750552673 L 1102 153.80092730435015 L 1103 146.5252526486143 L 1104 139.42648935314685 L 1105 132.5095531753135 L 1106 125.7792339606874 L 1107 119.24019232617843 L 1108 112.8969564326415 L 1109 106.75391884921345 L 1110 100.81533351154354 L 1111 95.08531277602185 L 1112 89.56782457205588 L 1113 84.26668965435243 L 1114 79.1855789571199 L 1115 74.328011052014 L 1116 69.6973497115984 L 1117 65.29680157999428 L 1118 61.12941395234117 L 1119 57.198072664604126 L 1120 53.50550009518605 L 1121 50.054253279735406 L 1122 46.846722140446275 L 1123 43.88512783108382 L 1124 41.171521198878 L 1125 38.70778136434973 L 1126 36.495614420058416 L 1127 34.536552249164004 L 1128 32.831951464627764 L 1129 31.38299246978363 L 1130 30.190678640931367 L 1131 29.25583563251837 L 1132 28.579110805389575 L 1133 28.16097277850207 L 1134 28.001711104415847 L 1135 28.101436068784153 L 1136 28.46007861398283 L 1137 29.077390386931256 L 1138 29.95294391107211 L 1139 31.086132882390984 L 1140 32.47617258926965 L 1141 34.122100455884606 L 1142 36.02277670877157 L 1143 38.176885166097065 L 1144 40.582934149089795 L 1145 43.23925751499809 L 1146 46.14401581086298 L 1147 49.2951975473037 L 1148 52.690620591434765 L 1149 56.32793367795341 L 1150 60.204618037342755 L 1151 64.31798914007311 L 1152 68.66519855558624 L 1153 73.243235924781 L 1154 78.04893104462616 L 1155 83.07895606346693 L 1156 88.32982778549848 L 1157 93.79791008281074 L 1158 99.47941641334069 L 1159 105.37041244297535 L 1160 111.46681877000583 L 1161 117.76441375003378 L 1162 124.25883641937838 L 1163 130.94558951496361 L 1164 137.8200425885811 L 1165 144.87743521339036 L 1166 152.11288028042216 L 1167 159.52136738280657 L 1168 167.09776628538773 L 1169 174.83683047730716 L 1170 182.73320080511587 L 1171 190.7814091838832 L 1172 198.9758823837451 L 1173 207.31094588925225 L 1174 215.78082782886761 L 1175 224.37966297187546 L 1176 233.10149678994003 L 1177 241.94028958050683 L 1178 250.8899206491737 L 1179 259.94419254815887 L 1180 269.0968353679137 L 1181 278.341511078913 L 1182 287.6718179206244 L 1183 297.0812948345968 L 1184 306.56342593862456 L 1185 316.11164503886954 L 1186 325.71934017682304 L 1187 335.3798582079655 L 1188 345.0865094089336 L 1189 354.8325721100302 L 1190 364.6112973498495 L 1191 374.41591354880836 L 1192 384.23963119832706 L 1193 394.0756475624395 L 1194 403.91715138855557 L 1195 413.7573276241217 L 1196 423.5893621359193 L 1197 433.4064464287133 L 1198 443.20178236000976 L 1199 452.96858684763765 L 1200 462.70009656690195 L 1201 472.3895726340615 L 1202 482.0303052728684 L 1203 491.6156184609653 L 1204 501.1388745529007 L 1205 510.59347887657015 L 1206 519.9728842999053 L 1207 529.2705957646294 L 1208 538.4801747839659 L 1209 547.5952439011639 L 1210 556.6094911057703 L 1211 565.5166742045678 L 1212 574.3106251441793 L 1213 582.9852542823251 L 1214 591.5345546047822 L 1215 599.9526058851313 L 1216 608.2335787843923 L 1217 616.371738887735 L 1218 624.36145067545 L 1219 632.1971814254377 L 1220 639.873505044513 L 1221 647.3851058258672 L 1222 654.7267821301027 L 1223 661.8934499872553 L 1224 668.880146617354 L 1225 675.6820338670493 L 1226 682.2944015599415 L 1227 688.7126707582871 L 1228 694.9323969338255 L 1229 700.9492730455299 L 1230 706.7591325221497 L 1231 712.3579521474808 L 1232 717.7418548463705 L 1233 722.9071123695095 L 1234 727.8501478751783 L 1235 732.5675384061407 L 1236 737.0560172599752 L 1237 741.3124762512045 L 1238 745.3339678636539 L 1239 749.1177072915496 L 1240 752.6610743679423 L 1241 755.9616153791271 L 1242 759.0170447637863 L 1243 761.8252466957014 L 1244 764.3842765489205 L 1245 766.6923622443752 L 1246 768.7479054770112 L 1247 770.5494828225833 L 1248 772.0958467233497 L 1249 773.3859263519826 L 1250 774.4188283530937 L 1251 775.1938374618682 L 1252 775.7104169993694 L 1253 775.9682092441802 L 1254 775.967035680118 L 1255 775.706897119853 L 1256 775.1879737043467 L 1257 774.4106247781068 L 1258 773.3753886403481 L 1259 772.0829821722316 L 1260 770.5343003404357 L 1261 768.7304155774118 L 1262 766.6725770387441 L 1263 764.3622097381326 L 1264 761.8009135605998 L 1265 758.9904621546003 L 1266 755.9328017038034 L 1267 752.6300495793981 L 1268 749.0844928738545 L 1269 745.2985868171571 L 1270 741.2749530766007 L 1271 737.0163779413427 L 1272 732.525810392947 L 1273 727.806360063272 L 1274 722.8612950811099 L 1275 717.6940398090708 L 1276 712.3081724722766 L 1277 706.7074226805096 L 1278 700.8956688455298 L 1279 694.876935495344 L 1280 688.6553904873059 L 1281 682.2353421219492 L 1282 675.6212361595734 L 1283 668.8176527416401 L 1284 661.8293032191134 L 1285 654.661026889939 L 1286 647.3177876479234 L 1287 639.8046705453336 L 1288 632.1268782715968 L 1289 624.2897275505303 L 1290 616.2986454586244 L 1291 608.1591656668877 L 1292 599.8769246088889 L 1293 591.4576575776335 L 1294 582.9071947539845 L 1295 574.2314571693736 L 1296 565.4364526056004 L 1297 556.5282714345615 L 1298 547.5130824007751 L 1299 538.3971283496583 L 1300 529.1867219044665 L 1301 519.8882410949257 L 1302 510.5081249405691 L 1303 501.0528689918398 L 1304 491.5290208320465 L 1305 481.943175543288 L 1306 472.3019711394853 L 1307 462.61208396968664 L 1308 452.88022409481397 L 1309 443.1131306410898 L 1310 433.3175671333113 L 1311 423.50031681124176 L 1312 413.66817793234736 L 1313 403.82795906413395 L 1314 393.98647436934505 L 1315 384.15053888728494 L 1316 374.32696381453695 L 1317 364.52255178833036 L 1318 354.7440921758604 L 1319 344.998356372771 L 1320 335.2920931140962 L 1321 325.6320238008903 L 1322 316.0248378457869 L 1323 306.4771880407089 L 1324 296.9956859499376 L 1325 287.5868973317315 L 1326 278.25733759166724 L 1327 269.0134672708359 L 1328 259.861687572058 L 1329 250.80833592716235 L 1330 241.85968160843953 L 1331 233.02192138729066 L 1332 224.3011752430822 L 1333 215.7034821251778 L 1334 207.2347957710815 L 1335 198.90098058359118 L 1336 190.70780756980324 L 1337 182.66095034481415 L 1338 174.76598120284217 L 1339 167.02836725852254 L 1340 159.45346666103552 L 1341 152.0465248836912 L 1342 144.81267109153947 L 1343 137.7569145895219 L 1344 130.8841413536241 L 1345 124.19911064743292 L 1346 117.70645172643066 L 1347 111.41066063233507 L 1348 105.3160970796697 L 1349 99.42698143674698 L 1350 93.74739180314413 L 1351 88.28126118569747 L 1352 83.03237477497078 L 1353 78.00436732408315 L 1354 73.20072063171386 L 1355 68.6247611310182 L 1356 64.27965758614431 L 1357 60.16841889791925 L 1358 56.29389202024464 L 1359 52.65875998863544 L 1360 49.26554006226945 L 1361 46.116581980833644 L 1362 43.214066337374504 L 1363 40.560003068279 L 1364 38.156230061433234 L 1365 36.00441188351738 L 1366 34.10603862732938 L 1367 32.46242487992146 L 1368 31.074708812274707 L 1369 29.943851391137173 L 1370 29.070635713573154 L 1371 28.455666464683304 L 1372 28.099369498871965 L 1373 28.00199154495101 L 1374 28.163600035284844 L 1375 28.584083059095065 L 1376 29.26314943995635 L 1377 30.200328937430413 L 1378 31.39497257269869 L 1379 32.84625307796762 L 1380 34.55316546933574 L 1381 36.514527742725704 L 1382 38.7289816923996 L 1383 41.19499385148947 L 1384 43.910856553896394 L 1385 46.874689116812704 L 1386 50.08443914306116 L 1387 53.53788394234016 L 1388 57.23263207039372 L 1389 61.16612498504145 L 1390 65.33563881791912 L 1391 69.7382862607057 L 1392 74.37101856452773 L 1393 79.23062765116418 L 1394 84.3137483345717 L 1395 89.61686065121654 L 1396 95.13629229757998 L 1397 100.86822117315864 L 1398 106.80867802719553 L 1399 112.95354920730983 L 1400 119.29857950812249 L 1401 125.83937511790413 L 1402 132.57140666120364 L 1403 139.4900123353611 L 1404 146.59040113870552 L 1405 153.867656188239 L 1406 161.31673812448219 L 1407 168.93248860113366 L 1408 176.70963385712602 L 1409 184.64278836860404 L 1410 192.72645857829698 L 1411 200.95504669969884 L 1412 209.32285459343726 L 1413 217.8240877131125 L 1414 226.45285911791822 L 1415 235.20319354923305 L 1416 244.0690315683723 L 1417 253.0442337526332 L 1418 262.1225849467271 L 1419 271.2977985666555 L 1420 280.56352095304857 L 1421 289.91333577094997 L 1422 299.3407684530157 L 1423 308.8392906830128 L 1424 318.40232491656286 L 1425 328.0232489359631 L 1426 337.69540043594475 L 1427 347.41208163719165 L 1428 357.16656392442417 L 1429 366.95209250583594 L 1430 376.76189109065496 L 1431 386.5891665816054 L 1432 396.42711377898166 L 1433 406.2689200931285 L 1434 416.10777026202663 L 1435 425.93685107073054 L 1436 435.74935606938914 L 1437 445.53849028658175 L 1438 455.2974749347055 L 1439 465.0195521041555 L 1440 474.69798944304483 L 1441 484.32608481924 L 1442 493.8971709614426 L 1443 503.4046200761575 L 1444 512.8418484373101 L 1445 522.2023209453499 L 1446 531.4795556526823 L 1447 540.6671282522917 L 1448 549.7586765264524 L 1449 558.7479047524387 L 1450 567.6285880622017 L 1451 576.3945767529578 L 1452 585.0398005457478 L 1453 593.5582727889872 L 1454 601.9440946041077 L 1455 610.1914589704166 L 1456 618.294654746348 L 1457 626.2480706243181 L 1458 634.0461990164486 L 1459 641.6836398684632 L 1460 649.1551043991299 L 1461 656.4554187626279 L 1462 663.5795276313456 L 1463 670.5224976965949 L 1464 677.2795210848333 L 1465 683.8459186870243 L 1466 690.21714339883 L 1467 696.388783269394 L 1468 702.3565645565316 L 1469 708.116354686219 L 1470 713.6641651143143 L 1471 718.9961540885517 L 1472 724.108629308882 L 1473 728.9980504843172 L 1474 733.6610317845161 L 1475 738.0943441844056 L 1476 742.294917700219 L 1477 746.2598435154009 L 1478 749.986375994906 L 1479 753.4719345865017 L 1480 756.7141056077467 L 1481 759.7106439174221 L 1482 762.4594744702488 L 1483 764.9586937538159 L 1484 767.2065711067266 L 1485 769.2015499170485 L 1486 770.9422487002366 L 1487 772.4274620557854 L 1488 773.6561615019465 L 1489 774.6274961879303 L 1490 775.3407934831055 L 1491 775.7955594427829 L 1492 775.9914791502614 L 1493 775.9284169349035 L 1494 775.6064164660828 L 1495 775.0257007229454 L 1496 774.1866718400003 L 1497 773.089910828649 L 1498 771.7361771748456 L 1499 770.1264083131691 L 1500 768.2617189776668 L 1501 766.1434004299218 L 1502 763.7729195648806 L 1503 761.1519178950552 L 1504 758.2822104138081 L 1505 755.1657843385034 L 1506 751.8047977343986 L 1507 748.2015780202215 L 1508 744.3586203564837 L 1509 740.2785859176248 L 1510 735.9643000492028 L 1511 731.4187503113953 L 1512 726.6450844101718 L 1513 721.6466080175674 L 1514 716.4267824825688 L 1515 710.9892224341968 L 1516 705.3376932784454 L 1517 699.4761085908058 L 1518 693.4085274061981 L 1519 687.1391514081629 L 1520 680.6723220192764 L 1521 674.0125173947994 L 1522 667.1643493216401 L 1523 660.1325600247806 L 1524 652.9220188833766 L 1525 645.5377190588088 L 1526 637.9847740370051 L 1527 630.2684140874625 L 1528 622.393982641378 L 1529 614.3669325914265 L 1530 606.1928225157374 L 1531 597.8773128286863 L 1532 589.4261618611662 L 1533 580.845221873054 L 1534 572.140435000633 L 1535 563.3178291417796 L 1536 554.3835137817505 L 1537 545.3436757624953 L 1538 536.2045749983782 L 1539 526.9725401413093" stroke-linecap="round" stroke-linejoin="round" stroke-miterlimit="10" stroke-width="16"/></g></svg>